<svg width="1070" height="2822" viewBox="0 0 1070 2822" fill="none" xmlns="http://www.w3.org/2000/svg">
<g opacity="0.8" filter="url(#filter0_i_178_4758)">
<path d="M48 48H896.462C965.795 48 1022 104.205 1022 173.538V543.552C1022 612.885 965.795 669.09 896.462 669.09H173.538C104.205 669.09 48 725.295 48 794.628V1252.16C48 1321.5 104.205 1377.7 173.538 1377.7H896.462C965.795 1377.7 1022 1433.91 1022 1503.24V1972.29C1022 2041.62 965.795 2097.83 896.462 2097.83H173.538C104.205 2097.83 48 2154.03 48 2223.36V2648.46C48 2717.79 104.205 2774 173.538 2774H1022" stroke="black" stroke-width="96" stroke-linecap="round" stroke-linejoin="bevel"/>
</g>
<defs>
<filter id="filter0_i_178_4758" x="0" y="0" width="1070" height="2853.17" filterUnits="userSpaceOnUse" color-interpolation-filters="sRGB">
<feFlood flood-opacity="0" result="BackgroundImageFix"/>
<feBlend mode="normal" in="SourceGraphic" in2="BackgroundImageFix" result="shape"/>
<feColorMatrix in="SourceAlpha" type="matrix" values="0 0 0 0 0 0 0 0 0 0 0 0 0 0 0 0 0 0 127 0" result="hardAlpha"/>
<feOffset dy="31.168"/>
<feGaussianBlur stdDeviation="33.7653"/>
<feComposite in2="hardAlpha" operator="arithmetic" k2="-1" k3="1"/>
<feColorMatrix type="matrix" values="0 0 0 0 0.574288 0 0 0 0 0.583639 0 0 0 0 0.686505 0 0 0 1 0"/>
<feBlend mode="normal" in2="shape" result="effect1_innerShadow_178_4758"/>
</filter>
</defs>
</svg>
